Patient4_TMGait_0pt6_02_right_36_EMG.mot
version=1
nRows=23
nColumns=33
inDegrees=no
endheader
time	1LAddLong	2LGlutMax	3LGlutMed	4LIliopsoas	5LSemiMemb	6LBicFemLong	7LRecFem	8LVastMed	9LVastLat	10LGasMed	11LTibAnt	12lTibPost	13LPeroneusLong	14LSol	15LExtDigLong	16LFlexDigLong	17RAddLong	18RGlutMax	19RGlutMed	20RIliopsoas	21RSemiMemb	22RBicFemLong	23RRecFem	24RVastMed	25RVastLat	26RGasMed	27RTibAnt	28RTibPost	29RPeroneusLong	30RSol	31RExtDigLong	32RFlexDigLong
44.175	-0.024872	0.003357	-0.23911	-0.001984	0.053711	-0.13443	0.11261	-0.037231	0.15335	-0.020447	-0.006256	-0.020905	0.036011	-0.043335	-0.026245	0.000153	0.03418	-0.071716	-0.042419	0.012054	0.31158	-0.17792	-0.10117	0.002289	0.013275	-0.010376	0.4422	-0.008545	0.049133	0.071259	0.00946	-0.02182
44.176	-0.018463	0.041809	-0.17929	-0.02243	0.004272	-0.067139	0.12863	-0.024567	0.27023	-0.014954	-0.022888	-0.019684	0.020294	-0.002899	-0.016327	-0.002441	0.043488	-0.10666	-0.13062	-0.06897	0.1648	-0.16815	-0.085449	0.00885	0.000916	-0.015106	0.4776	-0.005646	0.0737	0.074158	-0.000763	-0.020294
44.177	-0.01297	0.11978	-0.073242	-0.02594	0.002747	0.031738	0.077972	-0.003662	0.31082	-0.040588	-0.014038	-0.01297	0.024719	0.049438	-0.010223	0.014648	0.052185	-0.13351	-0.1387	-0.075531	0.20691	-0.059967	-0.057983	-0.023041	-0.001068	-0.019531	-0.29022	-0.00351	0.12512	0.006256	-0.004883	-0.025024
44.178	-0.009308	0.092468	0.00473	0.003815	0.027008	0.059357	0.049591	0.012817	0.21576	0.001068	-0.010681	-0.001068	0.00061	0.075378	0.041809	0.020294	0.030212	-0.18265	0.02533	0.003052	0.098267	-0.011292	-0.03891	-0.054626	0.01358	-0.013885	-0.73822	-0.00473	-0.04425	0.014038	-0.002747	-0.020599
44.179	-0.001068	0.080109	0.007477	0.004578	0.036316	0.095215	0.089111	0.005035	0.17899	0.032654	-0.00351	-0.004272	0.014191	0.099182	0.029602	0.001526	0.012665	-0.21393	0.17364	0.074768	0.12405	0.062561	-0.11292	-0.026703	0.00351	-0.017548	-0.20554	-0.004578	-0.12451	0.14679	-0.007935	-0.018311
44.18	0.00473	0.083466	-0.031281	-0.004578	-0.026093	0.10223	0.079651	-0.017242	0.15442	-0.028687	-0.007019	-0.020294	-0.008392	0.070343	0.00824	0.009155	0.022278	-0.17777	-0.090485	0.080719	0.087433	0.2623	-0.080414	-0.044098	0.011597	-0.0177	0.034637	0.006714	-0.057831	0.26123	-0.000916	-0.020447
44.181	0.004425	0.02121	-0.049438	0.011902	-0.052185	0.12604	-0.024109	-0.02533	0.12024	-0.006256	-0.006409	-0.006866	-0.03952	0.06424	0.006409	0.007172	0.021362	-0.23209	-0.13107	0.034637	0.071411	0.3862	-0.1471	0.00412	0.020294	-0.010376	-0.083923	-0.005798	0.13184	0.28122	-0.002899	-0.017548
44.182	0.006866	0.01358	-0.058441	0.017548	-0.024719	0.031891	-0.022888	-0.016327	0.15442	0.001678	0.008545	0.002441	0.027618	0.027313	0.003357	0.007629	0.033569	-0.30807	-0.1152	0.045319	0.13901	0.32059	-0.14496	-0.02243	0.03006	-0.010834	-0.035095	-0.00412	0.2623	0.1181	-0.001373	-0.010681
44.183	-0.000153	0.072174	-0.046387	0.02182	0.006104	0.13779	0.02182	-0.001373	0.18356	0.012512	0.020142	0.010071	0.27603	0.073547	-0.010986	0.019073	0.01358	-0.28061	-0.082092	0.04837	0.18585	0.22064	-0.21851	0.010834	0.039215	-0.003662	0.080719	-0.007019	0.30228	0.012817	-0.004578	-0.008392
44.184	-0.005493	0.002899	-0.047607	0.015564	0.044861	0.046234	0.044861	0.010681	0.26276	0.018616	0.003815	0.015564	0.51498	0.07782	-0.00351	0.019226	-0.053711	-0.3009	0.34546	-0.007324	-0.036316	0.1828	-0.28778	-0.021515	0.053101	0.005188	0.12024	-0.002136	0.063629	-0.08606	-0.000916	-0.010681
44.185	-0.012207	0.053101	-0.000305	0.011597	-0.043945	0.054779	0.085449	0.021057	0.29572	0.019379	0.020905	0.021515	0.31021	0.10483	0.027313	0.007324	-0.097351	-0.24063	-0.18204	-0.018311	-0.17029	0.19836	-0.23789	-0.10925	0.017548	0.019531	0.10223	-0.005951	-0.16174	-0.20889	-0.006104	-0.000916
44.186	-0.019073	0.021515	0.040131	0.017853	-0.029755	0.028992	0.075226	0.016327	0.22507	0.014648	-0.053406	0.018616	0.004425	0.17456	0.033875	0.022278	-0.094604	-0.31799	-0.24597	0.003204	-0.29785	0.25711	-0.24277	-0.089874	0.02243	0.014343	0.20371	-0.001373	-0.33829	-0.18036	-0.002289	-0.008698
44.187	0.000458	-0.002747	0.028229	-0.013885	0.051117	-0.2243	0.005341	0.020905	0.23285	0.023651	-0.068665	0.033722	-0.039978	0.20462	-0.00351	0.032959	-0.061493	-0.34241	-0.26276	0.068665	-0.1767	0.04364	-0.23239	-0.045929	0.034943	0.003357	0.26489	-0.009003	-0.48614	-0.086517	-0.002289	-0.021973
44.188	0.015411	-0.019379	-0.03479	0.010834	0.017242	-0.26688	-0.036011	0.014801	0.22003	0.021057	-0.021667	0.034943	-0.12207	0.2124	0.00885	0.045013	0.017242	-0.39459	-0.22369	0.03479	-0.17136	-0.084381	-0.24948	-0.064392	0.050812	0.001373	0.19882	-0.009155	-0.46555	-0.039368	-0.00473	-0.01709
44.189	-0.026703	-0.083466	-0.095673	0.017395	0.018616	-0.22354	0.071716	0.006561	0.15747	0.005341	-0.006409	0.032654	-0.35904	0.16266	0.045929	0.042419	0.079193	-0.38788	0.10132	-0.023499	-0.37399	-0.14923	-0.28824	-0.019531	0.0354	0.009918	0.14725	-0.009308	-0.24872	-0.20691	-0.001373	-0.020142
44.19	0.093384	-0.030823	-0.07019	0.023193	0.026245	-0.12711	0.18875	-0.003815	0.11581	0.011749	-0.023956	0.032806	-0.43915	0.070648	-0.057373	0.041962	0.10696	-0.33249	0.2533	0.010834	-0.13397	-0.26886	-0.289	0.024719	0.050049	0.028229	0.066986	-0.006714	-0.39368	-0.68573	-0.002289	-0.018311
44.191	0.041046	0.049286	0.006561	0.001831	0.009003	0.080109	0.20859	-0.00412	-0.003357	-0.008698	-0.022736	0.037689	0.45181	-0.092163	-0.10849	0.045776	0.10666	-0.35751	0.49393	-0.047913	0.14694	-0.30365	-0.32227	0.029602	0.049744	0.035248	-0.1059	0.004272	-0.4837	-0.95627	-0.002899	-0.022888
44.192	0.010071	0.001678	0.071716	0.005951	0.001221	0.16113	0.20218	-0.006104	-0.12756	-0.021973	-0.020447	0.032654	0.63675	-0.17212	-0.11322	0.045013	0.066528	-0.39917	0.16815	-0.11505	0.13809	-0.16739	-0.28061	0.063782	0.056763	0.032654	-0.13184	0.006409	-0.011902	-0.24262	0.00061	-0.027008
44.193	0.019531	-0.026855	0.063324	0.000153	0.013733	0.16602	0.20706	0.008545	-0.058136	0.047302	-0.010986	0.035248	0.27863	-0.23804	-0.081482	0.037994	0.058899	-0.44632	0.032806	-0.12741	0.065002	0.043488	-0.22232	0.023041	0.057831	0.016174	-0.056305	-0.001526	0.42129	0.73791	-0.006714	-0.024414
44.194	0.003815	-0.11307	0.026398	0.005188	0	0.1683	0.23361	0.020142	0.065613	0.078735	0	0.031738	0.26016	-0.18524	-0.036926	0.050049	0.044403	-0.41718	0.22522	-0.052795	0.09201	0.23285	-0.24994	0.096893	0.041962	-0.038452	0.044708	-0.065155	0.034637	1.3525	-0.003815	-0.037689
44.195	0.00946	-0.086517	0.053864	0.031128	0.023651	-0.059814	0.21576	0.029144	0.18494	0.056152	-0.012512	0.029602	-0.2655	-0.081787	-0.004883	0.069275	0.018463	-0.33707	0.25421	0.00473	0.050507	0.23025	-0.2713	0.12085	0.057678	-0.048676	0.055695	-0.33997	0.089874	1.5123	-0.007782	-0.031128
44.196	0.014191	-0.097809	0.008392	0.028534	0.032349	-0.45395	0.11215	0.023651	0.15137	-0.006409	-0.016327	0.023804	-0.52139	0.044403	-0.005493	0.080719	0.014801	-0.35416	0.027618	-0.004272	0.024719	0.28107	-0.31265	0.09079	0.048676	-0.043793	0.02594	0.067139	0.21378	1.2337	-0.002594	-0.020752
44.197	0.054016	-0.15228	-0.065308	0.007477	0.085144	-0.39856	0.071106	0.052032	0.15228	0.057678	-0.009155	0.027924	-0.31708	0.025787	-0.11246	0.078278	-0.001221	-0.38513	-0.068054	0.073242	0.031433	0.37186	-0.30365	0.007477	0.049133	-0.057831	0.021667	0.20264	0.23422	0.42709	-0.002289	-0.025024
